<?xml version="1.0" standalone="no"?><!DOCTYPE svg PUBLIC "-//W3C//DTD SVG 1.1//EN" "http://www.w3.org/Graphics/SVG/1.1/DTD/svg11.dtd"><svg t="1588312522489" class="icon" viewBox="0 0 1055 1024" version="1.1" xmlns="http://www.w3.org/2000/svg" p-id="1157" xmlns:xlink="http://www.w3.org/1999/xlink" width="206.0546875" height="200"><defs><style type="text/css"></style></defs><path d="M774.423478 1023.984667a96.812518 96.812518 0 0 1-48.436925-13.06371l-188.503816-108.71092a61.960625 61.960625 0 0 0-57.590722-2.269283l-196.461639 93.684587a96.87385 96.87385 0 0 1-136.463638-107.545613l45.140331-212.867942a61.945292 61.945292 0 0 0-15.670319-55.505435L26.679408 459.883854a96.87385 96.87385 0 0 1 60.105332-163.005048l216.394531-22.84616a61.960625 61.960625 0 0 0 47.915603-32.107287l103.850361-191.217756a96.87385 96.87385 0 0 1 173.676812 6.792516l88.609367 198.746255a61.960625 61.960625 0 0 0 45.293661 35.695208l213.956584 39.681786a96.87385 96.87385 0 0 1 47.164287 167.206289l-161.640412 145.663433a61.960625 61.960625 0 0 0-19.932891 54.110132l28.350704 215.781211a97.073179 97.073179 0 0 1-95.999869 109.615567zM506.525424 859.016995a96.812518 96.812518 0 0 1 48.390926 12.956379l188.503816 108.710921a61.975958 61.975958 0 0 0 92.396616-61.761296l-28.366037-215.735212a96.858517 96.858517 0 0 1 31.233306-84.592122l161.640413-145.663434a61.975958 61.975958 0 0 0-30.190664-106.962959l-214.002583-39.712452a96.858517 96.858517 0 0 1-70.777096-55.796761L596.714089 71.713804a61.960625 61.960625 0 0 0-111.041536-4.35457l-103.911693 191.233088a96.858517 96.858517 0 0 1-74.963003 50.108221l-216.363864 22.84616a61.960625 61.960625 0 0 0-38.455147 104.264352l149.772676 157.929828a96.858517 96.858517 0 0 1 24.532789 86.769408l-45.155665 212.80661a61.960625 61.960625 0 0 0 87.29073 68.783806l196.41564-93.653921a96.827851 96.827851 0 0 1 41.690408-9.429791z" fill="#0F0F0F" p-id="1158"></path><path d="M689.954019 769.242321a17.41828 17.41828 0 0 1-13.799694-6.700518c-52.914159-67.817828-40.908425-132.921716-21.46619-175.593436a245.69588 245.69588 0 0 1 53.956803-74.932336 17.452013 17.452013 0 0 1 23.214151 26.066088c-0.521322 0.45999-28.749362 26.066088-45.860982 64.321905-21.910847 48.896915-15.976979 95.539879 17.755606 138.62559a17.448946 17.448946 0 0 1-13.799694 28.197374z" fill="#239B54" p-id="1159"></path></svg>